<svg xmlns="http://www.w3.org/2000/svg" xmlns:xlink="http://www.w3.org/1999/xlink" fill="none" viewBox="0 0 516 349"><path fill="var(--vscode-editorGroupHeader-tabsBackground, #252526)" d="M21.624 0h474v35h-474z"/><g clip-path="url(#a)"><path fill="var(--vscode-tab-activeBackground, #1e1e1e)" d="M21.624 0h123v35h-123z"/><path fill="#519ABA" d="M41.384 14.88h-2.14v6.36h-1.56v-6.36h-2.12v-1.14h5.74v1.14zm4.8 4.44a.84.84 0 0 0-.08-.38 1.5 1.5 0 0 0-.22-.32q-.12-.1-.36-.22-.16-.06-.56-.22l-.16-.06q-1.3-.38-2.06-.94-.68-.58-.68-1.44 0-.94.82-1.5.74-.56 1.96-.56 1.239 0 2.04.7.74.66.74 1.62h-1.44q0-.28-.1-.48a1.2 1.2 0 0 0-.28-.4q-.4-.3-1-.3t-.92.24-.32.68q0 .36.38.64.159.12.48.24.24.1.76.26 1.22.36 1.86.92.64.54.64 1.52 0 .48-.2.88-.18.38-.54.62-.76.56-2 .56-1.32 0-2.14-.64-.94-.74-.86-1.8h1.5q0 .64.44 1 .18.14.48.22t.64.08q.68 0 .94-.24.24-.38.24-.68"/><rect width="79" height="7" x="53.624" y="14" fill="var(--vscode-tab-unfocusedInactiveForeground, #454545)" rx="3.5"/></g><g filter="url(#b)"><rect width="492" height="165" x="12" y="35" fill="var(--vscode-quickInput-background)" rx="2"/></g><path fill="#B180D7" d="M45.187 59.861v.572h-5.06v.038q-.05 1.453.553 2.088.609.635 1.714.635.558 0 1.168-.178.61-.177 1.3-.54v1.162a7.6 7.6 0 0 1-1.288.406 5.4 5.4 0 0 1-1.193.14q-1.657 0-2.59-.99-.933-.997-.933-2.742 0-1.701.914-2.717t2.438-1.016q1.358 0 2.139.92.786.921.838 2.222m-1.168-.342q-.077-.736-.54-1.27-.457-.54-1.32-.54-.844 0-1.39.56-.546.557-.597 1.256zm8.988-2.628-2.546 3.402L53.254 64h-1.352l-2.082-2.85L47.745 64h-1.352l2.792-3.707-2.545-3.402h1.295l1.885 2.57 1.873-2.57zm3.117 6.214v3.6h-1.175V56.89h1.175v.907q.291-.525.774-.8.488-.279 1.124-.279 1.287 0 2.018.997.735.997.736 2.761 0 1.733-.736 2.723-.736.984-2.018.984-.647 0-1.137-.273a2 2 0 0 1-.761-.806m3.427-2.653q0-1.36-.431-2.05-.426-.693-1.27-.693-.851 0-1.288.699-.438.691-.438 2.044 0 1.345.438 2.044.437.698 1.288.698.844 0 1.27-.692.43-.692.431-2.05m5.935-2.742q-.888 0-1.345.691-.457.693-.457 2.05 0 1.353.457 2.051.457.692 1.345.692.896 0 1.352-.692.457-.699.457-2.05 0-1.36-.457-2.05-.456-.693-1.352-.693m0-.99q1.48 0 2.26.958.787.958.787 2.774 0 1.82-.78 2.78-.781.952-2.267.952-1.479 0-2.26-.952-.78-.96-.78-2.78 0-1.815.78-2.774.781-.96 2.26-.959m11.255 1.637a2.7 2.7 0 0 0-.762-.425 2.6 2.6 0 0 0-.85-.134q-1.092 0-1.67.686-.578.685-.578 1.98V64h-1.174v-7.11h1.174v1.39q.292-.755.895-1.154.61-.407 1.441-.407.432 0 .806.108.376.108.718.337zm4.399-3.485v2.019h2.653v.907H81.14v3.86q0 .786.298 1.098.299.31 1.041.31h1.314V64h-1.428q-1.314 0-1.854-.527-.54-.526-.54-1.815v-3.86h-1.897v-.907h1.898v-2.019z"/><path fill="#9CDCFE" d="M99.656 54.123v.971h-1.327q-.628 0-.876.26-.24.255-.241.908v.629h2.444v.907h-2.444V64h-1.168v-6.202h-1.898v-.907h1.898v-.495q0-1.169.533-1.72.54-.553 1.676-.553zm2.323 7.186v-4.406h1.168v4.406q0 .958.336 1.409.343.45 1.054.45.825 0 1.263-.577.438-.585.438-1.67v-4.018h1.175V64h-1.175v-1.066a2.2 2.2 0 0 1-.85.933q-.534.317-1.251.317-1.091 0-1.625-.71-.533-.718-.533-2.165m13.267-1.714V64h-1.175v-4.405q0-.96-.336-1.41t-1.054-.45q-.819 0-1.263.584-.438.578-.438 1.663V64h-1.168v-7.11h1.168v1.067a2.2 2.2 0 0 1 .844-.92q.534-.318 1.263-.318 1.086 0 1.619.718.54.71.54 2.158m7.896 4.043a4 4 0 0 1-.971.406q-.495.14-1.016.14-1.65 0-2.583-.99-.927-.99-.927-2.742t.927-2.742q.933-.99 2.583-.99.514 0 1.003.133t.984.412v1.225a3.2 3.2 0 0 0-.933-.596 2.8 2.8 0 0 0-1.054-.184q-1.098 0-1.688.71-.591.71-.591 2.032 0 1.314.591 2.03.596.712 1.688.712.61 0 1.092-.184.483-.19.895-.584z"/><path fill="var(--vscode-foreground)" d="M124.717 48h4.213v22h-4.213z"/><rect width="65.307" height="8" x="31.757" y="95" fill="#007ACC" rx="4"/><rect width="40.027" height="8" x="103.384" y="95" fill="#D7BA7D" rx="4"/><rect width="66" height="8" x="56.124" y="115" fill="#007ACC" rx="4"/><rect width="71" height="8" x="32.124" y="135" fill="#007ACC" rx="4"/><rect width="61.093" height="8" x="138.144" y="114" fill="#D88E73" rx="4"/><rect width="37" height="8" x="32.124" y="166" fill="#007ACC" rx="4"/><rect width="47" height="8" x="75.124" y="166" fill="#D7BA7D" rx="4"/><g clip-path="url(#c)"><path fill="var(--vscode-editorSuggestWidget-background)" d="M130 72h335v98H130z"/><path fill="var(--vscode-list-activeSelectionBackground)" d="M130 72h335v26H130z"/><path fill="var(--vscode-editorSuggestWidget-selectedForeground)" d="m136.496 77.992-.496.512v11.488h1.008V79H148v10.992h1.008V78.504l-.512-.512zm-.496 14V91h1.008v.992zm3.008-.992H138v.992h1.008zm.992 0h1.008v.992H140zm3.008 0H142v.992h1.008zm.992 0h1.008v.992H144zm5.008.992V91H148v.992zM146 91h1.008v.992H146z"/><path fill="var(--vscode-list-focusHighlightForeground)" d="M160.33 81.863v.575h2.016v1.318h-2.016V89h-1.717v-5.244h-1.593v-1.319h1.593v-.456q0-1.185.492-1.641.493-.457 1.829-.457h1.412V81.2h-1.342q-.387 0-.527.14-.135.142-.147.522m3.838 4.846v-4.272h1.717v4.008q0 .709.199 1.014.2.305.662.305.463 0 .721-.41.263-.411.263-1.149v-3.767h1.717V89h-1.717v-.973a1.6 1.6 0 0 1-.621.844q-.433.3-1.048.299-.938 0-1.418-.621-.475-.621-.475-1.84m12.568-1.969V89h-1.705v-3.996q0-.716-.205-1.02-.199-.31-.656-.31-.463 0-.732.416-.264.416-.264 1.154V89h-1.705v-6.562h1.705v.984q.181-.545.621-.844.44-.3 1.06-.299.932 0 1.407.621.474.615.474 1.84m7.172 3.926a3.5 3.5 0 0 1-.931.375 4.3 4.3 0 0 1-1.073.129q-1.517 0-2.373-.914-.855-.915-.855-2.531 0-1.623.861-2.537.861-.92 2.379-.92a4.1 4.1 0 0 1 1.992.504v1.57a2.7 2.7 0 0 0-.826-.492 2.5 2.5 0 0 0-.926-.176q-.837 0-1.289.533t-.451 1.518q0 .984.451 1.511.452.528 1.289.528.498 0 .932-.164a2.8 2.8 0 0 0 .82-.51z"/><path fill="var(--vscode-editorSuggestWidget-selectedForeground)" d="M188.52 80.574v1.864h2.449v.837h-2.449v3.563q0 .726.275 1.014.276.287.961.287h1.213V89h-1.319q-1.212 0-1.711-.486-.498-.487-.498-1.676v-3.563h-1.752v-.838h1.752v-1.863zm5.484 1.887h2.76v5.701h2.138V89h-5.355v-.838h2.139V83.3h-1.682zm1.682-2.549h1.078v1.36h-1.078zm7.306 3.281q-.82 0-1.242.639t-.422 1.893q0 1.248.422 1.892.422.639 1.242.639.826 0 1.248-.639.422-.644.422-1.892 0-1.254-.422-1.893t-1.248-.639m0-.914q1.365 0 2.086.885.727.885.727 2.56 0 1.683-.721 2.567-.72.879-2.092.879-1.365 0-2.086-.879-.72-.885-.72-2.566 0-1.677.72-2.56.721-.885 2.086-.886m9.779 2.655V89h-1.083v-4.066q0-.885-.311-1.301-.31-.416-.973-.416-.755 0-1.166.539-.404.533-.404 1.535V89h-1.078v-6.562h1.078v.984q.287-.562.779-.85.492-.293 1.166-.293 1.002 0 1.494.662.498.657.498 1.993"/><path fill="#75BEFF" d="M136 106.992h2V106h-2.496l-.496.496v8l.496.496H138V114h-2zm12.496-.992H146v.992h2V114h-2v.992h2.496l.512-.496v-8zm-2.736 2.576.24.416v2.512l-.304.448-4.496 2h-.464l-2.496-1.488-.24-.432v-2.496l.304-.464 4.496-2h.464zm-6.752 3.136 1.488.896v-1.328l-1.488-.896zm.576-2.16 1.44.88 3.392-1.504-1.44-.864zm1.952 3.184 3.488-1.568v-1.392l-3.488 1.536z"/><rect width="37" height="6" x="156" y="108" fill="var(--vscode-foreground)" fill-opacity=".25" rx="3"/><rect width="169" height="6" x="228" y="108" fill="var(--vscode-foreground)" fill-opacity=".25" rx="3"/><rect width="28" height="6" x="197" y="108" fill="var(--vscode-editorSuggestWidget-highlightForeground)" rx="3"/><path fill="#75BEFF" d="M136 130.992h2V130h-2.496l-.496.496v8l.496.496H138V138h-2zm12.496-.992H146v.992h2V138h-2v.992h2.496l.512-.496v-8zm-2.736 2.576.24.416v2.512l-.304.448-4.496 2h-.464l-2.496-1.488-.24-.432v-2.496l.304-.464 4.496-2h.464zm-6.752 3.136 1.488.896v-1.328l-1.488-.896zm.576-2.16 1.44.88 3.392-1.504-1.44-.864zm1.952 3.184 3.488-1.568v-1.392l-3.488 1.536z"/><rect width="28" height="6" x="156" y="131" fill="var(--vscode-editorSuggestWidget-highlightForeground)" rx="3"/><rect width="37" height="6" x="189" y="131" fill="var(--vscode-foreground)" fill-opacity=".25" rx="3"/><rect width="211" height="6" x="231" y="131" fill="var(--vscode-foreground)" fill-opacity=".25" rx="3"/><path fill="#75BEFF" d="M136 154.992h2V154h-2.496l-.496.496v8l.496.496H138V162h-2zm12.496-.992H146v.992h2V162h-2v.992h2.496l.512-.496v-8zm-2.736 2.576.24.416v2.512l-.304.448-4.496 2h-.464l-2.496-1.488-.24-.432v-2.496l.304-.464 4.496-2h.464zm-6.752 3.136 1.488.896v-1.328l-1.488-.896zm.576-2.16 1.44.88 3.392-1.504-1.44-.864zm1.952 3.184 3.488-1.568v-1.392l-3.488 1.536z"/><rect width="21" height="6" x="156" y="155" fill="var(--vscode-foreground)" fill-opacity=".25" rx="3"/><rect width="37" height="6" x="182" y="155" fill="var(--vscode-editorSuggestWidget-highlightForeground)" rx="3"/><rect width="150" height="6" x="224" y="155" fill="var(--vscode-foreground)" fill-opacity=".25" rx="3"/></g><path stroke="var(--vscode-editorSuggestWidget-border)" stroke-width="2" d="M130 72h335v98H130z"/><a xlink:href="command:workbench.extensions.action.showLanguageExtensions"><path fill="transparent" d="M15.312 237h477v112h-477z"/><path fill="#CBCB41" d="M35.856 248.488h2.04v5.712q0 1.848-.864 2.688-.792.768-2.376.768-.36 0-.792-.048a3 3 0 0 1-.696-.192l.216-1.632a2.44 2.44 0 0 0 1.056.216q.672 0 1.008-.36.408-.432.408-1.44zm3.84 6.912a5 5 0 0 0 1.008.408q.648.192 1.224.192.72 0 1.08-.24a.85.85 0 0 0 .36-.72.87.87 0 0 0-.336-.72q-.336-.288-1.176-.576-2.472-.864-2.472-2.688 0-1.2.912-1.944.936-.768 2.544-.768 1.272 0 2.328.456l-.456 1.656-.144-.072a7 7 0 0 0-.696-.24A3.7 3.7 0 0 0 42.84 250q-.648 0-1.008.264a.76.76 0 0 0-.336.648q0 .408.384.672.288.216 1.248.6 1.2.456 1.752 1.104.576.648.576 1.584 0 1.2-.912 1.944-.984.84-2.76.84-.696 0-1.464-.192-.6-.12-1.08-.336z"/><path fill="var(--vscode-foreground)" d="M62.057 257.083v-1.613q.622.554 1.285.834.663.273 1.374.273.978 0 1.36-.506.39-.513.39-1.9v-5.715h-2.604v-1.162h3.985v6.877q0 1.928-.725 2.727-.717.8-2.406.8-.656 0-1.305-.15a7.4 7.4 0 0 1-1.354-.465m12.49-3.432h-.418q-1.1 0-1.66.39-.555.383-.555 1.148 0 .69.417 1.074.417.383 1.156.383 1.038 0 1.634-.718.594-.725.601-1.996v-.281zm2.44-.519v4.368h-1.265v-1.135q-.403.684-1.018 1.012-.609.321-1.484.321-1.17 0-1.866-.656-.697-.663-.697-1.771 0-1.278.854-1.941.861-.663 2.523-.663h1.688v-.198q-.007-.916-.465-1.326-.458-.417-1.463-.417-.642 0-1.298.184a5.7 5.7 0 0 0-1.279.54v-1.258q.698-.266 1.333-.396a6 6 0 0 1 1.244-.137q.951 0 1.62.28.678.281 1.094.841.26.342.37.848.109.5.109 1.504m1.88-3.288h1.305l2.222 6.426 2.228-6.426h1.306l-2.72 7.656h-1.62zm12.55 3.807H91q-1.1 0-1.66.39-.555.383-.555 1.148 0 .69.418 1.074.417.383 1.155.383 1.038 0 1.634-.718.594-.725.601-1.996v-.281zm2.44-.519v4.368h-1.264v-1.135q-.403.684-1.018 1.012-.608.321-1.484.321-1.17 0-1.866-.656-.697-.663-.697-1.771 0-1.278.854-1.941.861-.663 2.523-.663h1.688v-.198q-.007-.916-.465-1.326-.458-.417-1.463-.417-.641 0-1.298.184a5.7 5.7 0 0 0-1.279.54v-1.258q.698-.266 1.333-.396a6 6 0 0 1 1.244-.137q.951 0 1.62.28.677.281 1.094.841.26.342.37.848.109.5.109 1.504m8.115-5.489v1.401a5.4 5.4 0 0 0-1.265-.608 4 4 0 0 0-1.271-.206q-.978 0-1.545.458-.567.452-.567 1.224 0 .676.369 1.032.375.356 1.394.595l.725.164q1.435.335 2.092 1.053.656.717.656 1.955 0 1.456-.902 2.222-.903.765-2.625.765-.719 0-1.443-.157a8 8 0 0 1-1.456-.458v-1.47a6.8 6.8 0 0 0 1.484.732q.703.232 1.415.232 1.045 0 1.627-.465.58-.471.581-1.312 0-.766-.404-1.169-.396-.403-1.387-.622l-.739-.171q-1.422-.321-2.064-.971t-.643-1.743q0-1.367.916-2.187.922-.828 2.448-.828.588 0 1.237.137.65.13 1.367.397m8.771 9.467a4.3 4.3 0 0 1-1.046.438q-.533.15-1.094.15-1.777 0-2.782-1.066-.998-1.066-.998-2.953t.998-2.953q1.005-1.067 2.782-1.067.553 0 1.08.144.526.143 1.06.444v1.319a3.4 3.4 0 0 0-1.005-.642 3.1 3.1 0 0 0-1.135-.198q-1.183 0-1.818.765-.636.766-.636 2.188 0 1.415.636 2.187.642.766 1.818.766.655 0 1.176-.198.519-.206.964-.629zm9.078-5.687a2.9 2.9 0 0 0-.821-.458 2.8 2.8 0 0 0-.916-.144q-1.176 0-1.798.739-.621.738-.622 2.132v3.808H114.4v-7.656h1.264v1.497q.315-.813.964-1.244.657-.438 1.552-.438.465 0 .868.116.404.117.773.363zm2.7-1.552h3.22v6.651h2.495v.978h-6.248v-.978h2.495v-5.673h-1.962zm1.962-2.974h1.258v1.586h-1.258zm6.877 9.639v3.876h-1.265v-10.568h1.265v.977q.314-.567.834-.861a2.4 2.4 0 0 1 1.21-.301q1.387 0 2.174 1.073.792 1.074.792 2.974 0 1.866-.792 2.933-.794 1.059-2.174 1.059-.697 0-1.224-.294-.52-.3-.82-.868m3.691-2.857q0-1.464-.465-2.208-.458-.745-1.367-.745-.916 0-1.388.752-.471.744-.471 2.201 0 1.45.471 2.201.472.752 1.388.752.91 0 1.367-.745.465-.745.465-2.208m6.378-6.009v2.174h2.857v.977h-2.857v4.157q0 .847.321 1.182.322.335 1.121.335h1.415v1.005h-1.538q-1.414 0-1.996-.567-.58-.568-.581-1.955v-4.157h-2.044v-.977h2.044v-2.174z"/><path fill="#519ABA" d="M39.024 289.856h-2.568v7.632h-1.872v-7.632H32.04v-1.368h6.888v1.368zm5.76 5.328q0-.264-.096-.456a1.8 1.8 0 0 0-.264-.384 2.3 2.3 0 0 0-.432-.264 39 39 0 0 1-.672-.264l-.192-.072q-1.56-.456-2.472-1.128-.816-.696-.816-1.728 0-1.128.984-1.8.888-.672 2.352-.672 1.488 0 2.448.84.888.792.888 1.944h-1.728q0-.336-.12-.576a1.5 1.5 0 0 0-.336-.48q-.48-.36-1.2-.36t-1.104.288-.384.816q0 .432.456.768.192.144.576.288.288.12.912.312 1.464.432 2.232 1.104.768.648.768 1.824 0 .576-.24 1.056-.216.456-.648.744-.912.672-2.4.672-1.584 0-2.568-.768-1.128-.888-1.032-2.16h1.8q0 .768.528 1.2.216.168.576.264t.768.096q.816 0 1.128-.288.288-.456.288-.816"/><path fill="var(--vscode-foreground)" d="M61.633 287.294h7.786v1.162h-3.192v9.044h-1.388v-9.044h-3.206zm13.98 7.745q-.315.8-.8 2.106-.676 1.804-.91 2.201-.314.533-.785.8a2.2 2.2 0 0 1-1.101.266h-1.012v-1.053h.745q.555 0 .868-.321.315-.321.8-1.661l-2.96-7.533h1.333l2.27 5.988 2.235-5.988h1.333zm5.133 1.497v3.876h-1.264v-10.568h1.264v.977q.315-.567.834-.861a2.4 2.4 0 0 1 1.21-.301q1.388 0 2.174 1.073.793 1.074.793 2.974 0 1.866-.793 2.933-.792 1.059-2.174 1.059-.696 0-1.223-.294-.52-.3-.82-.868m3.692-2.857q0-1.464-.465-2.208-.458-.745-1.367-.745-.915 0-1.388.752-.471.744-.472 2.201 0 1.45.472 2.201t1.388.752q.91 0 1.367-.745.465-.746.465-2.208m9.837-.636v.615h-5.449v.041q-.054 1.566.595 2.249.657.684 1.846.684.601 0 1.258-.192a7.7 7.7 0 0 0 1.401-.581v1.251a8 8 0 0 1-1.388.438q-.663.15-1.285.15-1.785 0-2.789-1.066-1.005-1.074-1.005-2.953 0-1.833.985-2.926.984-1.094 2.625-1.094 1.463 0 2.303.991.848.992.903 2.393m-1.258-.369a2.4 2.4 0 0 0-.581-1.367q-.492-.582-1.422-.581-.909 0-1.497.601t-.643 1.354zm8.955-5.031v1.401a5.4 5.4 0 0 0-1.265-.608 4 4 0 0 0-1.271-.206q-.978 0-1.545.458-.567.452-.567 1.224 0 .676.369 1.032.375.356 1.394.595l.725.164q1.435.335 2.092 1.053.656.717.656 1.955 0 1.456-.902 2.222-.903.765-2.625.765-.719 0-1.443-.157a8 8 0 0 1-1.456-.458v-1.47a6.8 6.8 0 0 0 1.484.732q.703.232 1.415.232 1.045 0 1.627-.465.58-.472.581-1.312 0-.766-.404-1.169-.396-.403-1.387-.622l-.739-.171q-1.422-.321-2.064-.971t-.643-1.743q0-1.367.916-2.187.922-.828 2.448-.828.588 0 1.237.137.65.13 1.367.397m8.771 9.467a4.3 4.3 0 0 1-1.046.438q-.533.15-1.094.15-1.777 0-2.782-1.066-.998-1.066-.998-2.953t.998-2.953q1.005-1.067 2.782-1.067.553 0 1.08.144.526.143 1.06.444v1.319a3.4 3.4 0 0 0-1.005-.642 3.1 3.1 0 0 0-1.135-.198q-1.183 0-1.818.765-.636.766-.636 2.188 0 1.414.636 2.187.642.766 1.818.766.655 0 1.176-.198.519-.206.964-.629zm9.078-5.687a2.9 2.9 0 0 0-.821-.458 2.8 2.8 0 0 0-.916-.144q-1.176 0-1.798.739-.621.738-.622 2.132v3.808H114.4v-7.656h1.264v1.497q.315-.813.964-1.244.657-.438 1.552-.438.465 0 .868.116.404.117.773.363zm2.7-1.552h3.22v6.651h2.495v.978h-6.248v-.978h2.495v-5.673h-1.962zm1.962-2.974h1.258v1.586h-1.258zm6.877 9.639v3.876h-1.265v-10.568h1.265v.977q.314-.567.834-.861a2.4 2.4 0 0 1 1.21-.301q1.387 0 2.174 1.073.792 1.074.792 2.974 0 1.866-.792 2.933-.794 1.059-2.174 1.059-.697 0-1.224-.294-.52-.3-.82-.868m3.691-2.857q0-1.464-.465-2.208-.458-.745-1.367-.745-.916 0-1.388.752-.471.744-.471 2.201 0 1.45.471 2.201.472.752 1.388.752.91 0 1.367-.745.465-.746.465-2.208m6.378-6.009v2.174h2.857v.977h-2.857v4.157q0 .848.321 1.182.322.335 1.121.335h1.415v1.005h-1.538q-1.414 0-1.996-.567-.58-.568-.581-1.955v-4.157h-2.044v-.977h2.044v-2.174z"/><path fill="#CC3E44" d="m33.312 332.256 4.512-4.2V330l-3.384 3 3.384 3v1.944l-4.512-4.2zm12 1.56-4.488 4.2V336l3.432-3-3.432-3v-2.016l4.488 4.2z"/><path fill="var(--vscode-foreground)" d="M62.248 327.294h1.388v3.91h3.78v-3.91h1.388V337.5h-1.388v-5.134h-3.78v5.134h-1.388zm7.82 0h7.787v1.162h-3.193v9.044h-1.387v-9.044h-3.206zm8.361.034h1.846l1.763 5.182 1.778-5.182h1.852V337.5H84.39v-8.989l-1.818 5.359h-1.046l-1.825-5.359v8.989h-1.272zm9.66-.034h1.387v9.044h4.929v1.162h-6.317zm13.042 0h1.299l-5.373 11.505h-1.306zm9.694 9.844a4.7 4.7 0 0 1-2.256.56q-1.962 0-3.049-1.387-1.08-1.389-1.08-3.904 0-2.502 1.087-3.896 1.094-1.402 3.042-1.402.621 0 1.176.144.553.137 1.08.417v1.415q-.507-.417-1.087-.636a3.3 3.3 0 0 0-1.169-.219q-1.347 0-2.017 1.04-.67 1.038-.67 3.137 0 2.092.67 3.131.67 1.04 2.017 1.039.601 0 1.176-.219a3.7 3.7 0 0 0 1.08-.635zm8.018-9.495v1.401a5.4 5.4 0 0 0-1.265-.608 4 4 0 0 0-1.271-.206q-.978 0-1.545.458-.567.452-.567 1.224 0 .676.369 1.032.375.356 1.394.595l.725.164q1.435.335 2.092 1.053.656.717.656 1.955 0 1.456-.902 2.222-.903.765-2.625.765-.719 0-1.443-.157a8 8 0 0 1-1.456-.458v-1.47a6.8 6.8 0 0 0 1.484.732q.704.232 1.415.232 1.045 0 1.627-.465.58-.472.581-1.312 0-.766-.404-1.169-.397-.403-1.387-.622l-.739-.171q-1.422-.321-2.064-.971t-.643-1.743q0-1.367.916-2.187.923-.828 2.448-.828.588 0 1.237.137.65.13 1.367.397m8.436 0v1.401a5.4 5.4 0 0 0-1.265-.608 4 4 0 0 0-1.271-.206q-.978 0-1.545.458-.568.452-.568 1.224 0 .676.369 1.032.376.356 1.395.595l.725.164q1.435.335 2.091 1.053.657.717.657 1.955 0 1.456-.903 2.222-.901.765-2.625.765-.717 0-1.442-.157a8 8 0 0 1-1.456-.458v-1.47a6.8 6.8 0 0 0 1.483.732q.704.232 1.415.232 1.046 0 1.627-.465.581-.472.581-1.312 0-.766-.403-1.169-.396-.403-1.388-.622l-.738-.171q-1.422-.321-2.065-.971-.642-.65-.642-1.743 0-1.367.916-2.187.923-.828 2.447-.828.588 0 1.237.137.65.13 1.368.397"/><path fill="#519ABA" d="M180.024 252.616h-1.512q-.792 0-1.272.48-.456.456-.456 1.248v1.344q0 .24-.216.24h-.672q-1.056 0-1.512-.912-.36-.744-.36-1.344-.144-1.488.216-2.472.384-1.152 1.416-1.344H180q.24 0 .24-.072v-.384l-.096-.048a1 1 0 0 0-.12-.024h-2.568q-.168 0-.24-.072-.048-.072-.048-.24v-.96q0-.84.672-1.056.744-.312 1.128-.384 1.44-.24 2.688.072.624.144 1.056.456.264.264.36.48.144.264.096.576v2.688q0 .792-.432 1.224t-1.224.432q-.528.072-1.488.072m-2.112-4.488q0 .24.168.432a.56.56 0 0 0 .408.168q.24 0 .432-.192t.192-.408a.5.5 0 0 0-.192-.384.8.8 0 0 0-.408-.216.55.55 0 0 0-.432.192.56.56 0 0 0-.168.408m2.712 5.256h1.488q.792 0 1.248-.456.48-.48.48-1.272v-1.368q0-.216.216-.216h.672q1.056 0 1.512.912.384.744.384 1.344.12 1.488-.24 2.472-.384 1.152-1.416 1.344h-4.344q-.24 0-.24.072v.384l.096.048a.7.7 0 0 0 .144.024h2.544q.168 0 .216.072.072.072.072.24v.96q0 .84-.672 1.056-.744.288-1.128.384-1.44.24-2.688-.096a2.6 2.6 0 0 1-1.056-.432 1.7 1.7 0 0 1-.36-.48.9.9 0 0 1-.096-.576v-2.712q0-.768.432-1.2t1.224-.432q.528-.072 1.512-.072m2.088 4.488a.56.56 0 0 0-.168-.408.52.52 0 0 0-.408-.192.6.6 0 0 0-.432.192q-.192.192-.192.408t.168.384a.9.9 0 0 0 .432.216q.264 0 .432-.168a.64.64 0 0 0 .168-.432"/><path fill="var(--vscode-foreground)" d="M205.039 248.429v3.835h1.6q.957 0 1.49-.506.54-.506.54-1.415 0-.91-.533-1.408-.532-.506-1.497-.506zm-1.38-1.135h2.98q1.709 0 2.591.779.882.773.882 2.27 0 1.51-.882 2.283-.875.772-2.591.772h-1.6v4.102h-1.38zm12.954 7.745a116 116 0 0 0-.8 2.106q-.676 1.804-.909 2.201a2.15 2.15 0 0 1-.786.8 2.2 2.2 0 0 1-1.101.266h-1.012v-1.053h.745q.554 0 .869-.321t.799-1.661l-2.96-7.533h1.333l2.27 5.988 2.235-5.988h1.333zm6.767-7.369v2.174h2.858v.977h-2.858v4.157q0 .847.322 1.182.32.335 1.121.335h1.415v1.005H224.7q-1.416 0-1.997-.567-.58-.568-.581-1.955v-4.157h-2.044v-.977h2.044v-2.174zm11.423 5.086v4.744h-1.265v-4.744q0-1.032-.362-1.518-.362-.485-1.135-.485-.882 0-1.36.629-.472.623-.472 1.791v4.327h-1.257v-10.637h1.257v4.129q.336-.656.91-.991.573-.342 1.36-.342 1.168 0 1.743.773.58.765.581 2.324m5.462-2.03q-.957 0-1.449.745-.492.744-.492 2.208 0 1.455.492 2.208.492.744 1.449.745.964 0 1.456-.745.492-.753.492-2.208 0-1.464-.492-2.208t-1.456-.745m0-1.067q1.593 0 2.434 1.032.847 1.033.847 2.988 0 1.962-.841 2.994-.84 1.025-2.44 1.025-1.593 0-2.434-1.025-.84-1.032-.84-2.994 0-1.955.84-2.988.841-1.032 2.434-1.032m11.409 3.097v4.744h-1.264v-4.744q0-1.032-.363-1.518-.362-.485-1.135-.485-.881 0-1.36.629-.472.623-.472 1.791v4.327h-1.257v-7.656h1.257v1.148q.336-.656.91-.991.573-.342 1.36-.342 1.168 0 1.743.773.582.765.581 2.324"/><path fill="#519ABA" d="M174.528 292.616q0-1.416.456-2.544t1.176-1.848a6 6 0 0 1 1.824-1.224q.84-.384 2.184-.384 1.128 0 2.016.456.912.456 1.512 1.056L182.04 290l-.192-.144q-.408-.312-.624-.384l-.264-.072q-.48-.144-.792-.144-.528 0-.984.216a2.3 2.3 0 0 0-.816.696q-.312.408-.528 1.056a4.4 4.4 0 0 0-.216 1.392q0 1.728.744 2.472.384.48.864.696t1.08.216 1.056-.216a2.3 2.3 0 0 0 .816-.696l1.656 1.896a5.4 5.4 0 0 1-1.656 1.272q-.888.432-2.016.432-1.056 0-2.184-.36a4.56 4.56 0 0 1-1.8-1.128 4.5 4.5 0 0 1-.648-.936 20 20 0 0 1-.48-1.08q-.528-1.056-.528-2.568m7.44-1.944h-1.056v1.272h-1.2V293h1.2v1.344h1.056V293h1.2v-1.056h-1.2zm4.488 1.2v-1.488h-1.272v1.488h-1.416v1.272h1.416v1.584h1.272v-1.584h1.44v-1.272z"/><path fill="var(--vscode-foreground)" d="M209.647 297.138a4.7 4.7 0 0 1-1.08.417 4.7 4.7 0 0 1-1.176.143q-1.962 0-3.049-1.387-1.08-1.389-1.08-3.904 0-2.502 1.087-3.896 1.094-1.402 3.042-1.402.622 0 1.176.144.553.137 1.08.417v1.415q-.506-.417-1.087-.636a3.3 3.3 0 0 0-1.169-.219q-1.347 0-2.017 1.04-.67 1.038-.67 3.137 0 2.092.67 3.131.67 1.04 2.017 1.039.602 0 1.176-.219a3.7 3.7 0 0 0 1.08-.635zm7.178-9.844h1.298l-5.373 11.505h-1.305zm9.693 9.844a4.7 4.7 0 0 1-1.08.417 4.7 4.7 0 0 1-1.176.143q-1.962 0-3.049-1.387-1.08-1.389-1.08-3.904 0-2.502 1.087-3.896 1.093-1.402 3.042-1.402.623 0 1.176.144.553.137 1.08.417v1.415q-.506-.417-1.087-.636a3.3 3.3 0 0 0-1.169-.219q-1.347 0-2.017 1.04-.669 1.038-.669 3.137 0 2.092.669 3.131.67 1.04 2.017 1.039.601 0 1.176-.219a3.7 3.7 0 0 0 1.08-.635zm6.022-7.691v3.029h3.042v1.155h-3.042v3.028h-1.148v-3.028h-3.035v-1.155h3.035v-3.029zm8.436 0v3.029h3.042v1.155h-3.042v3.028h-1.148v-3.028h-3.036v-1.155h3.036v-3.029z"/><path fill="#519ABA" d="M173.64 332.928q0-1.44.432-2.544.456-1.128 1.2-1.872a6 6 0 0 1 1.824-1.224q.84-.36 2.16-.36 1.128 0 2.016.456.912.432 1.512 1.032l-1.656 1.872-.192-.144q-.384-.312-.624-.36l-.24-.072q-.48-.168-.816-.168-.528 0-.96.24-.528.24-.84.672-.312.408-.528 1.08a4.4 4.4 0 0 0-.216 1.392q0 1.728.744 2.472.408.456.864.696.48.216 1.08.216t1.056-.24q.504-.24.84-.672l1.632 1.872a5.5 5.5 0 0 1-1.632 1.272q-.912.456-2.04.456-1.032 0-2.16-.384a4.5 4.5 0 0 1-1.8-1.104 3.6 3.6 0 0 1-.648-.936q-.192-.36-.48-1.104-.528-.936-.528-2.544m11.016.888h-.744l-.288 1.8h-.912l.312-1.8h-.912V333h1.128l.144-1.2h-.96v-.816h1.104l.312-1.8h.888l-.288 1.8h.744l.312-1.8h.888l-.288 1.8h.96v.816h-1.2l-.144 1.2h.984v.816h-1.2l-.312 1.8h-.888q0 .048.168-.864zm-.6-.744h.768l.144-1.2h-.744z"/><path fill="var(--vscode-foreground)" d="M209.647 337.138a4.7 4.7 0 0 1-1.08.417 4.7 4.7 0 0 1-1.176.143q-1.962 0-3.049-1.387-1.08-1.389-1.08-3.904 0-2.502 1.087-3.896 1.094-1.402 3.042-1.402.622 0 1.176.144.553.137 1.08.417v1.415q-.506-.417-1.087-.636a3.3 3.3 0 0 0-1.169-.219q-1.347 0-2.017 1.04-.67 1.038-.67 3.137 0 2.092.67 3.131.67 1.04 2.017 1.039.602 0 1.176-.219a3.7 3.7 0 0 0 1.08-.635zm5.776-9.653-.615 2.42h1.675l.622-2.42h1.094l-.622 2.42h1.668v1.046h-1.921l-.67 2.687h1.709v1.046h-1.976l-.711 2.816h-1.094l.718-2.816h-1.681l-.718 2.816h-1.087l.711-2.816h-1.764v-1.046h2.03l.67-2.687h-1.818v-1.046h2.071l.615-2.42zm.807 3.466h-1.675l-.67 2.687h1.682z"/><path fill="#CC3E44" d="M289.312 245.8a7.05 7.05 0 0 0-3.624.984 7.2 7.2 0 0 0-2.592 2.592 7.05 7.05 0 0 0-.984 3.624q0 1.944.984 3.624a7.2 7.2 0 0 0 2.592 2.592 7.05 7.05 0 0 0 3.624.984 7.05 7.05 0 0 0 3.624-.984 7.2 7.2 0 0 0 2.592-2.592 7.05 7.05 0 0 0 .984-3.624 7.05 7.05 0 0 0-.984-3.624 7.2 7.2 0 0 0-2.592-2.592 7.05 7.05 0 0 0-3.624-.984m2.568 8.16q.072.576-.12 1.128a2.46 2.46 0 0 1-.576.984q-.408.408-.936.624-.528.192-1.104.144a3 3 0 0 1-1.344-.216 2.9 2.9 0 0 1-1.056-.816l.864-1.104q.264.336.648.528t.84.192q.6 0 .936-.384.336-.408.336-1.2v-4.68h1.512z"/><path fill="var(--vscode-foreground)" d="M312.057 257.083v-1.613q.622.554 1.285.834.663.273 1.374.273.978 0 1.361-.506.389-.513.389-1.9v-5.715h-2.604v-1.162h3.985v6.877q0 1.928-.725 2.727-.717.8-2.406.8-.656 0-1.305-.15a7.4 7.4 0 0 1-1.354-.465m12.489-3.432h-.417q-1.1 0-1.661.39-.554.383-.554 1.148 0 .69.417 1.074.418.383 1.156.383 1.038 0 1.633-.718.595-.725.602-1.996v-.281zm2.441-.519v4.368h-1.265v-1.135q-.403.684-1.019 1.012-.608.321-1.483.321-1.168 0-1.866-.656-.697-.663-.697-1.771 0-1.278.854-1.941.861-.663 2.523-.663h1.688v-.198q-.007-.916-.465-1.326-.458-.417-1.463-.417-.642 0-1.299.184a5.7 5.7 0 0 0-1.278.54v-1.258q.697-.266 1.333-.396a6 6 0 0 1 1.244-.137q.951 0 1.62.28a2.55 2.55 0 0 1 1.094.841q.26.342.369.848.11.5.11 1.504m1.88-3.288h1.305l2.222 6.426 2.228-6.426h1.306l-2.721 7.656h-1.62zm12.55 3.807H341q-1.1 0-1.661.39-.553.383-.553 1.148 0 .69.417 1.074.417.383 1.155.383 1.038 0 1.634-.718.595-.725.601-1.996v-.281zm2.441-.519v4.368h-1.265v-1.135q-.403.684-1.018 1.012-.608.321-1.484.321-1.168 0-1.866-.656-.697-.663-.697-1.771 0-1.278.854-1.941.861-.663 2.523-.663h1.688v-.198q-.006-.916-.465-1.326-.458-.417-1.463-.417-.642 0-1.298.184a5.7 5.7 0 0 0-1.279.54v-1.258q.697-.266 1.333-.396a6 6 0 0 1 1.244-.137q.95 0 1.621.28.676.281 1.093.841.26.342.369.848.11.5.11 1.504"/><path fill="#CBCB41" d="M282.928 292.328q.768 0 1.08-.36.216-.264.216-.768 0-.216-.048-.624a6 6 0 0 1-.048-.648q0-.24-.024-.696a6 6 0 0 1-.048-.576q0-1.152.672-1.704t1.896-.552h.6v1.416h-.312q-.528 0-.768.312-.216.288-.216.888 0 .144.048.432.048.36.048.552 0 .144.024.456.048.432.048.672 0 .912-.384 1.368-.336.408-1.056.576.72.192 1.056.576.384.48.384 1.368 0 .264-.048.696-.048.312-.048.456.024.144-.024.504a2.4 2.4 0 0 0-.048.384q0 .6.216.912.24.288.768.288h.312v1.416h-.6q-2.496 0-2.496-2.256 0-.816.072-1.248.096-.456.096-1.296 0-1.128-1.272-1.128zm12.768 1.272q-1.272 0-1.272 1.128 0 .216.024.648.048.408.048.624.072.456.072 1.272 0 2.256-2.544 2.256h-.6v-1.272h.288q.528 0 .744-.288.24-.312.24-.912t-.072-.912q0-.192-.048-.552a5 5 0 0 1-.048-.576q0-.888.384-1.368.336-.384 1.056-.576-.72-.168-1.056-.576-.384-.456-.384-1.368 0-.24.048-.672.048-.312.048-.456a5.3 5.3 0 0 0 .072-.96q0-.576-.24-.864t-.744-.36h-.288V286.4h.6q1.2 0 1.872.552t.672 1.704q0 .216-.048.648-.024.408-.024.624-.072.456-.096 1.272.024.504.216.768.312.36 1.08.36z"/><path fill="var(--vscode-foreground)" d="M312.057 297.083v-1.613q.622.553 1.285.834.663.273 1.374.273.978 0 1.361-.506.389-.513.389-1.9v-5.715h-2.604v-1.162h3.985v6.877q0 1.928-.725 2.727-.717.8-2.406.8-.656 0-1.305-.15a7.4 7.4 0 0 1-1.354-.465m14.608-9.44v1.401a5.4 5.4 0 0 0-1.264-.608 4 4 0 0 0-1.272-.206q-.976 0-1.545.458-.567.452-.567 1.224 0 .676.369 1.032.377.356 1.395.595l.724.164q1.436.335 2.092 1.053.657.717.656 1.955 0 1.456-.902 2.222-.903.765-2.625.765-.718 0-1.442-.157a8 8 0 0 1-1.456-.458v-1.47a6.8 6.8 0 0 0 1.483.732q.704.232 1.415.232 1.046 0 1.627-.465.58-.472.581-1.312 0-.766-.403-1.169-.397-.403-1.388-.622l-.738-.171q-1.422-.321-2.065-.971-.642-.65-.642-1.743 0-1.367.916-2.187.923-.828 2.447-.828.588 0 1.237.137.65.13 1.367.397m7.705 4.764q0-2.248-.465-3.213-.459-.964-1.511-.964-1.046 0-1.511.964-.458.964-.458 3.213 0 2.243.458 3.206.465.964 1.511.964 1.053 0 1.511-.957.465-.963.465-3.213m1.442 0q0 2.667-.848 3.979-.84 1.312-2.57 1.312t-2.57-1.305q-.841-1.306-.841-3.986 0-2.673.841-3.985.847-1.313 2.57-1.313 1.73 0 2.57 1.313.848 1.312.848 3.985m.936-5.079h1.887l3.992 8.374v-8.374h1.47V297.5h-1.887l-3.992-8.374v8.374h-1.47z"/><path fill="#A074C4" d="M286.84 335.784q-.12-.768-.744-.984l-.528-.312a5 5 0 0 1-.6-.216q-.216-.096-.456.144a.32.32 0 0 0 .072.384q.072.144.312.384.144.216.528.6l.048.072q.12.168.144.264a.48.48 0 0 1 .024.336q-.12.864-.672 1.416a.3.3 0 0 1-.12.072h-.024q-.168 0-.384-.072a1.2 1.2 0 0 1-.312-.216q-.144-.168-.12-.312.024-.168.216-.288.048 0 .096-.048a.16.16 0 0 0 .048-.12q.24-.24.144-.504a1 1 0 0 1-.096-.12 1 1 0 0 0-.048-.12q-.312-.288-1.056-.888-1.392-1.08-1.488-2.712-.12-1.728.816-3.36.408-.696.984-.984.288-.144.888-.312 1.512-.408 2.616-.216 1.272.264 1.584 1.272.24.864.144 1.512-.048.768-.6 1.392a2.6 2.6 0 0 1-1.272.84q-.336.12-.528.072-.192-.072-.36-.36l-.12-.168a11 11 0 0 1-.408-.648v-.096q0-.024-.048-.048a.2.2 0 0 1-.024-.096q.072.456.12.672.096.36.24.6.144.192.264.288a.6.6 0 0 0 .336.096q1.464.12 2.328-.984.84-1.152.6-2.832a1.6 1.6 0 0 0-.096-.48l-.048-.12a.5.5 0 0 1 .024-.192q.024-.072.12-.12.144 0 .144-.072 1.296-.264 2.328-.144 1.488.12 2.472.816 1.728 1.08 2.328 3.216.072.24.072.6 0 .12-.048.144a.6.6 0 0 1-.168-.048 2.4 2.4 0 0 1-.24-.216l-.048-.096q-.048-.024-.12-.144a1 1 0 0 0-.12-.168q-.048-.048-.096-.048t-.048.048a.23.23 0 0 1-.048.12.4.4 0 0 0-.024.12q-.384 1.296-1.056 1.944a2 2 0 0 0-.096.168.26.26 0 0 0-.048.144l-.024.288q-.024.408.024.6l.216 1.872q.048.264-.048.408-.072.144-.336.264-.432.168-.744.168h-1.2q0-.456-.048-.648-.072-.336-.312-.48.144-.6.216-.984a.9.9 0 0 0-.144-.744q-.192-.288-.6-.144-.816.504-1.872.144-.264-.072-.432-.024-.144.048-.24.24-.24.456-.24.912t.144 1.2a1 1 0 0 1-.024.264q-.024.048-.192.096-.72.216-1.488.096h-.096q0-.456-.048-.648a.8.8 0 0 0-.456-.48q.36-.384.216-1.272m-3.072-1.728q.144-.168.144-.312.048-.168-.072-.384a.6.6 0 0 0-.312-.288q-.096-.048-.168-.024a.5.5 0 0 0-.12.096q-.12.12-.312.36a2 2 0 0 1-.288.312q0 .048-.048.096-.024.024-.024.072-.072.096-.024.192t.168.096q.216 0 .312.072.432 0 .744-.288m0-2.472a.3.3 0 0 0-.096-.216.3.3 0 0 0-.216-.096q-.12 0-.24.12-.096.096-.048.264 0 .12.096.216.12.072.264.072.24-.216.24-.36"/><path fill="var(--vscode-foreground)" d="M314.039 328.429v3.835h1.6q.957 0 1.49-.506.54-.506.54-1.415 0-.91-.533-1.408-.532-.507-1.497-.506zm-1.38-1.135h2.98q1.709 0 2.591.779.882.773.882 2.27 0 1.51-.882 2.283-.875.772-2.591.772h-1.6v4.102h-1.38zm8.025 0h1.388v3.91h3.78v-3.91h1.388V337.5h-1.388v-5.134h-3.78v5.134h-1.388zm10.227 1.135v3.835h1.599q.957 0 1.49-.506.54-.506.54-1.415 0-.91-.533-1.408-.533-.507-1.497-.506zm-1.381-1.135h2.98q1.709 0 2.591.779.882.773.882 2.27 0 1.51-.882 2.283-.875.772-2.591.772h-1.599v4.102h-1.381z"/><path fill="#519ABA" d="M384.84 246.016v7.44h2.856a1247 1247 0 0 1-6.528 6.6l-6.312-6.528h2.64v-7.584l.288.216q1.32.912 1.992 1.344 1.2.768 1.44.768.264 0 1.176-.6.552-.336 1.68-1.128z"/><path fill="var(--vscode-foreground)" d="M403.558 247.328h1.846l1.763 5.182 1.778-5.182h1.852V257.5h-1.278v-8.989l-1.818 5.359h-1.046l-1.826-5.359v8.989h-1.271zm12.988 6.323h-.417q-1.1 0-1.661.39-.554.383-.554 1.148 0 .69.417 1.074.418.383 1.156.383 1.038 0 1.633-.718.595-.725.602-1.996v-.281zm2.441-.519v4.368h-1.265v-1.135q-.403.684-1.019 1.012-.608.321-1.483.321-1.168 0-1.866-.656-.697-.663-.697-1.771 0-1.278.854-1.941.861-.663 2.523-.663h1.688v-.198q-.007-.916-.465-1.326-.458-.417-1.463-.417-.642 0-1.299.184a5.7 5.7 0 0 0-1.278.54v-1.258q.697-.266 1.333-.396a6 6 0 0 1 1.244-.137q.951 0 1.62.28a2.55 2.55 0 0 1 1.094.841q.26.342.369.848.11.5.11 1.504m9.091-1.709a2.8 2.8 0 0 0-.82-.458 2.8 2.8 0 0 0-.916-.144q-1.176 0-1.798.739-.622.738-.622 2.132v3.808h-1.264v-7.656h1.264v1.497q.315-.813.964-1.244.657-.438 1.552-.438.465 0 .868.116.403.117.772.363zm2.154-4.56h1.299v6.159l3.301-3.178h1.532l-3.015 2.885 3.486 4.771h-1.538l-2.83-3.951-.936.882v3.069h-1.299zm12.687 3.958v-3.958h1.258V257.5h-1.258v-.964q-.314.567-.841.868a2.4 2.4 0 0 1-1.203.294q-1.388 0-2.187-1.073-.793-1.08-.793-2.974 0-1.866.8-2.925.8-1.067 2.18-1.067.691 0 1.217.301.527.294.827.861m-3.698 2.858q0 1.463.465 2.208.465.744 1.374.745.909 0 1.381-.752.478-.752.478-2.201 0-1.457-.478-2.201-.472-.752-1.381-.752t-1.374.745q-.465.744-.465 2.208m10.48-2.953q-.957 0-1.45.745-.492.744-.492 2.208 0 1.455.492 2.208.492.744 1.45.745.963 0 1.456-.745.492-.753.492-2.208 0-1.464-.492-2.208-.493-.745-1.456-.745m0-1.067q1.592 0 2.433 1.032.848 1.033.848 2.988 0 1.962-.841 2.994-.841 1.025-2.44 1.025-1.593 0-2.434-1.025-.841-1.032-.841-2.994 0-1.955.841-2.988t2.434-1.032m4.224.185h1.244l1.333 6.186 1.094-3.951h1.073l1.108 3.951 1.333-6.186h1.244l-1.791 7.656h-1.203l-1.224-4.197-1.217 4.197h-1.203zm15.62 2.912v4.744h-1.264v-4.744q0-1.032-.363-1.518-.362-.485-1.134-.485-.882 0-1.361.629-.471.623-.471 1.791v4.327h-1.258v-7.656h1.258v1.148q.335-.656.909-.991.574-.342 1.36-.342 1.168 0 1.743.773.582.765.581 2.324"/><path fill="#519ABA" d="m374.712 295.88 5.472-2.952-5.448-3.312v-3.504l9.216 5.952v2.016l-9.24 5.28zm13.944 3.888h-7.992v-1.992h7.992z"/><path fill="var(--vscode-foreground)" d="M406.039 288.429v3.835h1.6q.957 0 1.49-.506.54-.506.54-1.415 0-.91-.533-1.408-.532-.507-1.497-.506zm-1.38-1.135h2.98q1.709 0 2.591.779.882.773.882 2.27 0 1.51-.882 2.283-.875.772-2.591.772h-1.6v4.102h-1.38zm11.299 3.432q-.957 0-1.449.745-.492.744-.492 2.208 0 1.455.492 2.208.492.744 1.449.745.964 0 1.456-.745.493-.753.493-2.208 0-1.464-.493-2.208-.492-.745-1.456-.745m0-1.067q1.593 0 2.434 1.032.848 1.033.848 2.988 0 1.962-.841 2.994-.841 1.025-2.441 1.025-1.592 0-2.433-1.025-.841-1.032-.841-2.994 0-1.955.841-2.988.84-1.032 2.433-1.032m4.225.185h1.244l1.333 6.186 1.094-3.951h1.073l1.108 3.951 1.333-6.186h1.244l-1.791 7.656h-1.203l-1.224-4.197-1.217 4.197h-1.203zm16.092 3.199v.615h-5.448v.041q-.055 1.566.594 2.249.657.684 1.846.684.601 0 1.258-.192a7.7 7.7 0 0 0 1.401-.581v1.251a8 8 0 0 1-1.388.438q-.663.15-1.285.15-1.784 0-2.789-1.066-1.005-1.074-1.005-2.953 0-1.833.985-2.926.984-1.094 2.625-1.094 1.463 0 2.303.991.848.992.903 2.393m-1.258-.369a2.4 2.4 0 0 0-.581-1.367q-.492-.582-1.422-.581-.909 0-1.497.601t-.643 1.354zm9.933-1.251a2.9 2.9 0 0 0-.821-.458 2.8 2.8 0 0 0-.916-.144q-1.176 0-1.798.739-.622.738-.622 2.132v3.808h-1.264v-7.656h1.264v1.497q.315-.813.964-1.244.657-.438 1.552-.438.465 0 .868.116.403.117.773.363zm7.458-3.78v1.401a5.4 5.4 0 0 0-1.265-.608 4 4 0 0 0-1.272-.206q-.977 0-1.544.458-.568.452-.568 1.224 0 .676.369 1.032.377.356 1.395.595l.724.164q1.436.335 2.092 1.053.656.717.656 1.955 0 1.456-.902 2.222-.901.765-2.625.765-.717 0-1.442-.157a8 8 0 0 1-1.456-.458v-1.47a6.8 6.8 0 0 0 1.483.732q.704.232 1.415.232 1.046 0 1.627-.465.58-.472.581-1.312 0-.766-.403-1.169-.396-.403-1.388-.622l-.738-.171q-1.422-.321-2.065-.971-.642-.65-.642-1.743 0-1.367.916-2.187.923-.828 2.447-.828.588 0 1.237.137.65.13 1.368.397m8.702 5.113v4.744h-1.265v-4.744q0-1.032-.362-1.518-.363-.485-1.135-.485-.882 0-1.36.629-.472.623-.472 1.791v4.327h-1.258v-10.637h1.258v4.129q.335-.656.909-.991.574-.342 1.361-.342 1.168 0 1.743.773.58.765.581 2.324m8.907.287v.615h-5.448v.041q-.055 1.566.594 2.249.657.684 1.846.684.601 0 1.258-.192a7.7 7.7 0 0 0 1.401-.581v1.251a8 8 0 0 1-1.387.438q-.663.15-1.286.15-1.784 0-2.789-1.066-1.005-1.074-1.004-2.953 0-1.833.984-2.926t2.625-1.094q1.462 0 2.304.991.848.992.902 2.393m-1.258-.369a2.4 2.4 0 0 0-.581-1.367q-.492-.582-1.422-.581-.909 0-1.497.601t-.642 1.354zm6.952 2.057q0 .849.308 1.279.314.43.923.43h1.469v1.06h-1.592q-1.128 0-1.75-.718-.615-.724-.616-2.051v-6.924h-2.016v-.985h3.274zm8.436 0q0 .849.307 1.279.315.43.923.43h1.47v1.06h-1.593q-1.128 0-1.75-.718-.615-.724-.615-2.051v-6.924h-2.017v-.985h3.275z"/><path fill="#A074C4" d="M382.128 335.472q-.192 0-.504.048a3 3 0 0 1-.312.024h-1.344q.144-1.608.408-4.8t.408-4.8h.888q1.032-.048 1.512 0 .168 0 .336.216t.12.384q-.168 1.2-.6 3.624l-.312 1.632q-.12 1.008-.48 3.096zm.312 3q.048.624-.408 1.128-.456.48-1.176.528t-1.32-.336q-.576-.408-.624-1.008-.048-.696.408-1.152t1.248-.504 1.296.312q.528.36.576 1.032"/><path fill="var(--vscode-foreground)" d="M403.565 327.294h1.47l2.488 4.505 2.481-4.505h1.484l-3.275 5.626v4.58h-1.387v-4.58zm12.393 1.217-1.456 5.222h2.912zm-.834-1.217h1.675l3.124 10.206h-1.428l-.752-2.659h-3.576l-.738 2.659H412zm5.305.034h1.846l1.763 5.182 1.778-5.182h1.852V337.5h-1.278v-8.989l-1.818 5.359h-1.046l-1.825-5.359v8.989h-1.272zm9.659-.034h1.388v9.044h4.929v1.162h-6.317z"/></a><defs><clipPath id="a"><path fill="#fff" d="M21.624 0h123v35h-123z"/></clipPath><clipPath id="c"><path fill="#fff" d="M130 72h335v98H130z"/></clipPath><filter id="b" width="516" height="189" x="0" y="25" color-interpolation-filters="sRGB" filterUnits="userSpaceOnUse"><feFlood flood-opacity="0" result="BackgroundImageFix"/><feColorMatrix in="SourceAlpha" values="0 0 0 0 0 0 0 0 0 0 0 0 0 0 0 0 0 0 127 0"/><feOffset dy="2"/><feGaussianBlur stdDeviation="6"/><feColorMatrix values="0 0 0 0 0 0 0 0 0 0 0 0 0 0 0 0 0 0 0.6 0"/><feBlend in2="BackgroundImageFix" result="effect1_dropShadow"/><feBlend in="SourceGraphic" in2="effect1_dropShadow" result="shape"/></filter></defs></svg>